<svg width="17" height="17" viewBox="0 0 17 17" fill="none" xmlns="http://www.w3.org/2000/svg">
<path fill-rule="evenodd" clip-rule="evenodd" d="M0.853553 16.4099C0.658291 16.6052 0.341709 16.6052 0.146447 16.4099C-0.0488155 16.2146 -0.0488156 15.8981 0.146447 15.7028L7.57109 8.27815L0.146522 0.853582C-0.04874 0.65832 -0.04874 0.341737 0.146522 0.146475C0.341784 -0.0487872 0.658367 -0.0487873 0.853629 0.146475L8.2782 7.57104L15.7028 0.146447C15.8981 -0.0488154 16.2146 -0.0488156 16.4099 0.146447C16.6052 0.341709 16.6052 0.658291 16.4099 0.853553L8.9853 8.27815L16.41 15.7028C16.6052 15.8981 16.6052 16.2147 16.41 16.4099C16.2147 16.6052 15.8981 16.6052 15.7029 16.4099L8.2782 8.98526L0.853553 16.4099Z" fill="white"/>
</svg>
